<svg width="91" height="62" viewBox="0 0 91 62" fill="none" xmlns="http://www.w3.org/2000/svg">
<g opacity="0.8">
<path d="M49.5952 18.9247C50.2183 18.9247 50.7194 18.4158 50.7194 17.7831V13.7394C50.7194 11.7175 53.7127 11.2361 54.3357 13.2167C54.3899 13.3818 54.417 13.5606 54.417 13.7394V17.7968C54.417 18.4158 54.9181 18.9247 55.5276 18.9247C56.1371 18.9247 56.6383 18.4158 56.6383 17.7968V13.7394C56.6383 11.7175 59.6316 11.2361 60.2546 13.2167C60.3088 13.3818 60.3359 13.5606 60.3359 13.7394V17.7968C60.3359 18.4158 60.837 18.9247 61.4465 18.9247C62.056 18.9247 62.5571 18.4158 62.5571 17.7968V13.7394C62.5571 11.4974 60.7422 9.6819 58.4803 9.6819C57.329 9.6819 56.2726 10.1495 55.5141 10.9473C54.7556 10.1495 53.6992 9.6819 52.5614 9.6819C51.8571 9.6819 51.1664 9.8607 50.5433 10.2046C50.3537 9.87445 50.0016 9.65439 49.5952 9.65439C48.9722 9.65439 48.4711 10.1633 48.4711 10.796V17.7968C48.4711 18.4295 48.9722 18.9247 49.5952 18.9247Z" fill="#0E9297"/>
<path d="M63.8303 14.4821C63.8303 17.0954 65.9567 19.2272 68.5843 19.2272C71.1983 19.2272 73.3383 17.1091 73.3383 14.4821C73.3383 13.8219 73.2029 13.2029 72.9591 12.6253C72.5934 11.7725 71.9975 11.0435 71.239 10.5346C70.8597 10.2871 70.4399 10.0808 69.9929 9.94322C69.5459 9.80568 69.0719 9.73691 68.5843 9.73691C67.9342 9.73691 67.3111 9.87445 66.7423 10.1083C65.889 10.4659 65.1711 11.0573 64.6565 11.8138C64.3991 12.1989 64.196 12.6115 64.0605 13.0654C63.898 13.5055 63.8303 13.9869 63.8303 14.4821C63.8303 14.7984 63.9522 15.0735 64.1553 15.2798C63.9522 15.0735 63.8303 14.7984 63.8303 14.4821ZM67.1622 12.4327C67.3653 12.2952 67.582 12.1851 67.8258 12.1164C68.0696 12.0476 68.3134 12.0063 68.5843 12.0063C68.9365 12.0063 69.2751 12.0751 69.573 12.1989C70.02 12.3914 70.4128 12.7078 70.6837 13.1067C70.8191 13.2992 70.9275 13.5193 70.9952 13.7531C71.0629 13.9869 71.1035 14.2207 71.1035 14.4821C71.1035 14.7984 71.2254 15.0735 71.4286 15.2798C71.2254 15.0735 71.1035 14.7847 71.1035 14.4821C71.1035 15.8575 69.9658 16.9578 68.5843 16.9578C67.1892 16.9578 66.0651 15.8437 66.0651 14.4821C66.0651 14.1382 66.1328 13.8219 66.2547 13.533C66.4443 13.0792 66.7558 12.7078 67.1622 12.4327Z" fill="#0E9297"/>
<path d="M74.6115 17.7968C74.6115 18.4295 75.1126 18.9384 75.7356 18.9384C76.3587 18.9384 76.8598 18.4295 76.8598 17.7968V13.7394C76.8598 11.7175 79.8531 11.2499 80.4761 13.2167C80.5303 13.3818 80.5574 13.5606 80.5574 13.7394V17.8931H80.5709C80.6116 18.4708 81.0992 18.9384 81.6816 18.9384C82.264 18.9384 82.738 18.4845 82.7922 17.8931V17.8381C82.7922 17.8243 82.7922 17.8106 82.7922 17.7968C82.7922 17.7831 82.7922 17.7693 82.7922 17.7556V13.7806C82.7922 13.7669 82.7922 13.7531 82.7922 13.7394C82.7922 10.6172 79.4061 8.6916 76.7108 10.2046C76.5212 9.87445 76.169 9.65439 75.7627 9.65439C75.1397 9.65439 74.6385 10.1633 74.6385 10.796V13.7394L74.6115 17.7968Z" fill="#0E9297"/>
<path d="M49.6088 38.428C50.2318 38.428 50.7329 37.9191 50.7329 37.2864V34.343C51.4102 34.7419 52.1957 34.9757 53.0355 34.9757C55.5276 34.9757 57.5593 32.9263 57.5593 30.3818C57.5593 27.8511 55.5412 25.788 53.0355 25.788C52.1551 25.788 51.3289 26.0493 50.6246 26.4894C50.4485 26.1043 50.0693 25.843 49.6223 25.843C48.9993 25.843 48.4981 26.3519 48.4981 26.9846C48.4981 26.9846 48.4981 26.9846 48.4981 26.9983V37.2864C48.4846 37.9191 48.9857 38.428 49.6088 38.428ZM53.0219 28.0574C54.2951 28.0574 55.3245 29.1027 55.3245 30.3956C55.3245 31.6885 54.2951 32.7338 53.0219 32.7338C51.7488 32.7338 50.7194 31.6885 50.7194 30.3956C50.7194 29.1027 51.7488 28.0574 53.0219 28.0574Z" fill="#0E9297"/>
<path d="M60.0649 33.8754C60.4712 34.2055 60.9317 34.4668 61.4464 34.6318C61.9611 34.8106 62.5299 34.8932 63.1123 34.8932C63.6947 34.8932 64.2771 34.7694 64.8189 34.5631C65.3607 34.343 65.8618 34.0404 66.2952 33.6415C66.5255 33.4352 66.6745 33.1326 66.6745 32.8025C66.6745 32.1698 66.1733 31.6609 65.5503 31.6609C65.2659 31.6609 65.0085 31.771 64.8054 31.9498C64.5887 32.1423 64.3042 32.3211 64.0063 32.4449C63.7083 32.5687 63.3968 32.6237 63.1123 32.6237C62.6654 32.6237 62.2997 32.5412 61.9882 32.4174C61.7579 32.3211 61.5683 32.2111 61.4058 32.0598C61.162 31.8535 60.9723 31.5784 60.8369 31.2621C60.7015 30.9457 60.6337 30.5606 60.6337 30.1342C60.6337 28.7588 61.6766 27.6585 62.8821 27.6585C63.8708 27.6585 64.6022 28.1812 64.9679 28.9926H62.4487C61.8256 28.9926 61.3245 29.5015 61.3245 30.1342C61.3245 30.7669 61.8256 31.2758 62.4487 31.2758H66.3088C66.9318 31.2758 67.433 30.7669 67.433 30.1342C67.433 27.4934 65.5503 25.3891 62.8956 25.3891C60.4441 25.3891 58.4125 27.521 58.4125 30.1342C58.4125 30.7532 58.5073 31.3584 58.7105 31.9223C58.8594 32.3486 59.0761 32.7475 59.347 33.1051C59.5637 33.4077 59.8075 33.669 60.0649 33.8754Z" fill="#0E9297"/>
<path d="M75.1126 33.4902C75.1126 32.8576 74.6115 32.3487 73.9884 32.3487C73.9342 32.3487 73.8801 32.3624 73.8259 32.3624C72.9455 32.5 72.3766 32.3349 72.3766 31.4546V27.521H73.9207C74.5437 27.521 75.0313 27.0121 75.0313 26.3794C75.0313 25.7467 74.5302 25.2515 73.9207 25.2378H72.3766V23.0921C72.3766 22.4595 71.8755 21.9506 71.2525 21.9506C70.6294 21.9506 70.1283 22.4595 70.1283 23.0921V25.2378H69.4511C68.828 25.2378 68.3269 25.7467 68.3269 26.3794C68.3269 27.0121 68.828 27.521 69.4511 27.521H70.1283V31.3996C70.1283 33.504 71.564 35.0032 74.1374 34.6181C74.6927 34.5356 75.1126 34.0679 75.1126 33.4902Z" fill="#0E9297"/>
<path d="M78.3361 22.1156C77.7131 22.1156 77.212 22.6245 77.212 23.2572C77.212 23.8899 77.7131 24.3988 78.3361 24.3988C78.9592 24.3988 79.4603 23.8899 79.4603 23.2572C79.4468 22.6107 78.9456 22.1156 78.3361 22.1156Z" fill="#0E9297"/>
<path d="M78.3361 25.5541C77.7131 25.5541 77.212 26.063 77.212 26.6957V33.559C77.212 34.1917 77.7131 34.7006 78.3361 34.7006C78.9592 34.7006 79.4603 34.1917 79.4603 33.559V26.682C79.4468 26.063 78.9456 25.5541 78.3361 25.5541Z" fill="#0E9297"/>
<path d="M86.7336 34.6181C87.2754 34.5356 87.6952 34.0679 87.6952 33.4902C87.6952 32.8576 87.1941 32.3487 86.5711 32.3487C86.5169 32.3487 86.4627 32.3624 86.4085 32.3624C85.5281 32.5 84.9593 32.3349 84.9593 31.4546V27.521H86.5033C87.1264 27.521 87.614 27.0121 87.614 26.3794C87.614 25.7467 87.1128 25.2515 86.5033 25.2378H84.9593V23.0921C84.9593 22.4595 84.4581 21.9506 83.8351 21.9506C83.2121 21.9506 82.7109 22.4595 82.7109 23.0921V25.2378H82.0337C81.4107 25.2378 80.9095 25.7467 80.9095 26.3794C80.9095 27.0121 81.4107 27.521 82.0337 27.521H82.7109V31.3996C82.738 33.504 84.1602 35.0032 86.7336 34.6181Z" fill="#0E9297"/>
<path d="M56.5976 39.3495C55.9745 39.3495 55.4734 39.8584 55.4734 40.4911V43.3794C54.7555 42.9118 53.9293 42.6642 53.076 42.6642C51.5185 42.6642 50.1369 43.4757 49.3243 44.7411C47.3197 47.822 49.4462 52.0308 53.0896 52.0308C53.9835 52.0308 54.8504 51.7557 55.5953 51.2468C55.7714 51.6457 56.1641 51.9207 56.6111 51.9207C57.2341 51.9207 57.7353 51.4118 57.7353 50.7792C57.7353 50.7792 57.7353 50.7792 57.7353 50.7654V40.4773C57.7217 39.8584 57.2206 39.3495 56.5976 39.3495ZM53.076 49.7613C51.8164 49.7613 50.7871 48.6885 50.7871 47.3544C50.7871 44.9749 53.7126 44.0534 54.9723 45.9927C56.0152 47.5882 54.9181 49.7613 53.076 49.7613Z" fill="#0E9297"/>
<path d="M59.2116 47.4094C59.2116 50.0227 61.3381 52.1546 63.9656 52.1546C66.5797 52.1546 68.7197 50.0364 68.7197 47.4094C68.7197 46.7492 68.5842 46.1303 68.3404 45.5526C67.9747 44.6999 67.3788 43.9709 66.6203 43.462C66.2411 43.2144 65.8212 43.0081 65.3742 42.8706C64.9273 42.733 64.4532 42.6642 63.9656 42.6642C63.3155 42.6642 62.6925 42.8018 62.1236 43.0356C61.2703 43.3932 60.5525 43.9846 60.0378 44.7411C59.7805 45.1262 59.5773 45.5389 59.4419 45.9927C59.2929 46.4466 59.2116 46.928 59.2116 47.4094ZM66.4713 47.4094C66.4713 48.7848 65.3336 49.8852 63.9521 49.8852C62.557 49.8852 61.4329 48.7711 61.4329 47.4094C61.4329 47.0656 61.5006 46.7492 61.6225 46.4604C61.8121 46.0202 62.1236 45.6351 62.53 45.3738C62.7331 45.2363 62.9498 45.1262 63.1936 45.0575C63.4374 44.9887 63.6812 44.9474 63.9521 44.9474C64.3043 44.9474 64.6429 45.0162 64.9408 45.14C65.3878 45.3325 65.7806 45.6489 66.0515 46.0478C66.1869 46.2403 66.2953 46.4604 66.363 46.6942C66.4307 46.9143 66.4713 47.1618 66.4713 47.4094Z" fill="#0E9297"/>
<path d="M71.6995 39.2945C71.0765 39.2945 70.5753 39.8034 70.5753 40.4361C70.5753 41.0688 71.0765 41.5777 71.6995 41.5777C72.3225 41.5777 72.8237 41.0688 72.8237 40.4361C72.8237 39.8034 72.3225 39.2945 71.6995 39.2945Z" fill="#0E9297"/>
<path d="M71.6995 42.7468C71.0765 42.7468 70.5753 43.2557 70.5753 43.8884V50.7517C70.5753 51.3843 71.0765 51.8932 71.6995 51.8932C72.3225 51.8932 72.8237 51.3843 72.8237 50.7517V43.8746C72.8237 43.2419 72.3225 42.7468 71.6995 42.7468Z" fill="#0E9297"/>
<path d="M83.3747 47.2443C83.3747 47.1756 83.3747 47.1068 83.3747 47.038C83.3747 46.3366 83.3747 45.6764 83.3747 45.1537C83.3747 44.8511 83.3747 44.5898 83.3747 44.411C83.3747 44.2322 83.3747 44.1359 83.3747 44.1359C83.3747 43.5032 82.8736 42.9943 82.2505 42.9943C81.8171 42.9943 81.4379 43.2557 81.2482 43.627C81.2482 43.6408 81.2482 43.6408 81.2347 43.6545C81.2347 43.6408 81.2347 43.6408 81.2482 43.627C80.5304 43.2144 79.7177 42.9943 78.8644 42.9943C75.6003 42.9943 73.4467 46.144 74.7334 48.9223C75.8305 51.288 78.8374 52.1546 81.1263 50.9029V51.1092C81.1263 51.1092 81.1263 51.1643 81.1128 51.2193C81.0044 52.0033 80.5168 52.691 79.6636 52.8973C79.1218 53.0348 78.2143 53.0486 77.4287 52.8285C76.8057 52.6635 76.5348 52.4571 76.3046 52.3059C76.2775 52.2783 76.2504 52.2646 76.2098 52.2508C76.1691 52.2233 76.142 52.2096 76.1014 52.1821C76.0879 52.1821 76.0879 52.1683 76.0743 52.1683C75.9524 52.1133 75.8305 52.0858 75.6544 52.0858C75.0314 52.0858 74.5303 52.5947 74.5303 53.2274C74.5303 53.5987 74.7063 53.9288 74.9772 54.1351C74.9908 54.1489 75.0043 54.1489 75.0179 54.1627L75.0314 54.1764C76.5077 55.263 78.7155 55.4693 80.1918 55.1117C80.1918 55.1117 80.1918 55.1117 80.2053 55.1117C81.8171 54.7128 82.8736 53.4887 83.2528 51.9895C83.4153 51.3431 83.3747 51.4256 83.3747 47.4369C83.3747 47.3819 83.3747 47.3131 83.3747 47.2443ZM81.1941 43.8196C81.1805 43.8471 81.1805 43.8746 81.167 43.8883C81.167 43.8746 81.1805 43.8471 81.1941 43.8196ZM78.878 49.2112C78.0653 49.2112 77.361 48.8398 76.9682 48.3034C75.7492 46.6529 77.7809 44.6586 79.799 45.4426C80.5168 45.7176 81.0857 46.3503 81.1399 47.1206V47.3819C81.0586 48.3859 80.097 49.2112 78.878 49.2112Z" fill="#0E9297"/>
<path d="M91 50.6829C91 50.0502 90.4989 49.5413 89.8759 49.5413C89.8217 49.5413 89.7675 49.5551 89.7133 49.5551C88.833 49.6926 88.2641 49.5275 88.2641 48.6473V44.7136H89.8081C90.4312 44.7136 90.9188 44.2047 90.9188 43.572C90.9188 42.9393 90.4176 42.4304 89.8081 42.4304H88.2641V40.2848C88.2641 39.6521 87.763 39.1432 87.1399 39.1432C86.5169 39.1432 86.0157 39.6521 86.0157 40.2848V42.4304H85.3385C84.7155 42.4304 84.2144 42.9393 84.2144 43.572C84.2144 44.2047 84.7155 44.7136 85.3385 44.7136H86.0157V48.5923C86.0157 50.6966 87.4514 52.1958 90.0249 51.8107C90.5802 51.7145 91 51.2468 91 50.6829Z" fill="#0E9297"/>
<path d="M2.65068 35.4021C3.57169 35.4021 4.30308 34.6456 4.30308 33.7241V27.7135C4.30308 24.7151 8.7456 24.0137 9.66662 26.9295C9.74788 27.1771 9.78851 27.4384 9.78851 27.7135V33.7378C9.78851 34.6593 10.5334 35.4158 11.4409 35.4158C12.3619 35.4158 13.0933 34.6593 13.0933 33.7378V27.7135C13.0933 24.7151 17.5358 23.9999 18.4569 26.9295C18.5381 27.1771 18.5787 27.4384 18.5787 27.7135V33.7378C18.5787 34.6593 19.3237 35.4158 20.2312 35.4158C21.1522 35.4158 21.8836 34.6593 21.8836 33.7378V27.7135C21.8836 27.6998 21.8836 27.686 21.8836 27.686C21.8836 27.521 21.87 27.3421 21.8565 27.1771C21.8565 27.1083 21.8429 27.0396 21.8294 26.9708C21.8158 26.8608 21.8023 26.7507 21.7752 26.6407C21.7617 26.5582 21.7481 26.4894 21.7346 26.4069C21.7075 26.3106 21.6939 26.2143 21.6668 26.118C21.6262 25.953 21.572 25.7879 21.5179 25.6366C21.4908 25.5816 21.4772 25.5266 21.4501 25.4716C21.4095 25.3616 21.3553 25.2653 21.3147 25.1552C21.2876 25.114 21.2741 25.0727 21.247 25.0315C21.1928 24.9214 21.1386 24.8114 21.0709 24.7014C21.0574 24.6876 21.0574 24.6739 21.0438 24.6601C20.0009 22.8858 18.0641 21.6892 15.8293 21.6892C14.1362 21.6892 12.5515 22.3907 11.4274 23.5735C10.3167 22.4044 8.7456 21.6892 7.03903 21.6892C5.98257 21.6892 4.96675 21.9505 4.04574 22.4732C3.76131 21.978 3.23309 21.6479 2.62359 21.6479C1.70258 21.6479 0.971191 22.4044 0.971191 23.326V33.7103C0.984736 34.6456 1.72967 35.4021 2.65068 35.4021Z" fill="#0E9297"/>
<path d="M39.735 41.5639L39.4912 6.711C39.4912 5.88576 39.3151 5.07427 39.0171 4.35905C38.7327 3.6851 38.3264 3.09367 37.8388 2.57102C36.7146 1.38817 35.1435 0.686707 33.4369 0.686707C32.3804 0.686707 31.3646 0.948034 30.4436 1.47069C28.5745 2.52976 27.3691 4.51035 27.3691 6.711V22.3219C26.5158 21.8818 25.5812 21.6617 24.6196 21.6617C23.6986 21.6617 22.9672 22.4182 22.9672 23.3535C22.9672 24.2887 23.7121 25.0452 24.6331 25.0452C26.0011 25.0727 27.369 26.0218 27.3826 27.6723V27.6998V33.7103C27.3826 34.6456 28.1275 35.3883 29.035 35.3883C29.956 35.3883 30.6874 34.6318 30.6874 33.7103V6.711C30.6874 3.71261 35.1299 3.01115 36.0509 5.94077C36.1322 6.18835 36.1728 6.44968 36.1728 6.72476L36.4708 41.6739C36.4708 50.6829 29.2517 58.0276 20.3667 58.0276C11.4816 58.0276 4.26252 50.6691 4.26252 41.6602L4.28961 38.7306C4.30315 37.7953 3.55821 37.0388 2.6372 37.0388C1.72974 37.0388 0.984802 37.7953 0.984802 38.7168V41.6602C0.984802 52.5122 9.68023 61.3423 20.3667 61.3423C31.0531 61.3423 39.7485 52.5122 39.7485 41.6602C39.735 41.6327 39.735 41.5914 39.735 41.5639Z" fill="#0E9297"/>
<path d="M13.1611 41.784C13.0799 40.8762 12.3485 40.2023 11.4681 40.2023C10.994 40.2023 10.5335 40.4086 10.2085 40.7662C9.88341 41.1238 9.72087 41.6052 9.76151 42.1003C10.2626 47.7533 14.9761 52.1821 20.5021 52.1821C26.0282 52.1821 30.7416 47.7533 31.2427 42.1003C31.2834 41.6189 31.1208 41.1238 30.7958 40.7662C30.4707 40.4086 30.0102 40.2023 29.5361 40.2023C28.6558 40.2023 27.9244 40.89 27.8431 41.784C27.5181 45.6627 24.281 48.6886 20.5157 48.6886C16.7368 48.6886 13.5133 45.6627 13.1611 41.784Z" fill="#0E9297"/>
</g>
</svg>
