<svg id="eJAefFrTg4m1" xmlns="http://www.w3.org/2000/svg" xmlns:xlink="http://www.w3.org/1999/xlink" viewBox="0 0 91 62" shape-rendering="geometricPrecision" text-rendering="geometricPrecision"><g opacity="0.8"><g><g transform="translate(.000001 0)"><path d="M49.5952,18.9247c.6231,0,1.1242-.5089,1.1242-1.1416v-4.0437c0-2.0219,2.9933-2.5033,3.6163-.5227.0542.1651.0813.3439.0813.5227v4.0574c0,.619.5011,1.1279,1.1106,1.1279s1.1107-.5089,1.1107-1.1279v-4.0574c0-2.0219,2.9933-2.5033,3.6163-.5227.0542.1651.0813.3439.0813.5227v4.0574c0,.619.5011,1.1279,1.1106,1.1279s1.1106-.5089,1.1106-1.1279v-4.0574c0-2.242-1.8149-4.0575-4.0768-4.0575-1.1513,0-2.2077.4676-2.9662,1.2654-.7585-.7978-1.8149-1.2654-2.9527-1.2654-.7043,0-1.395.1788-2.0181.5227-.1896-.33015-.5417-.55021-.9481-.55021-.623,0-1.1241.50891-1.1241,1.14161v7.0008c0,.6327.5011,1.1279,1.1241,1.1279Z" transform="translate(-.21166 0)" fill="#0e9297"/><path d="M63.8303,14.4821c0,2.6133,2.1264,4.7451,4.754,4.7451c2.614,0,4.754-2.1181,4.754-4.7451c0-.6602-.1354-1.2792-.3792-1.8568-.3657-.8528-.9616-1.5818-1.7201-2.0907-.3793-.2475-.7991-.4538-1.2461-.59138s-.921-.20631-1.4086-.20631c-.6501,0-1.2732.13754-1.842.37139-.8533.3576-1.5712.949-2.0858,1.7055-.2574.3851-.4605.7977-.596,1.2516-.1625.4401-.2302.9215-.2302,1.4167c0,.3163.1219.5914.325.7977-.2031-.2063-.325-.4814-.325-.7977Zm3.3319-2.0494c.2031-.1375.4198-.2476.6636-.3163.2438-.0688.4876-.1101.7585-.1101.3522,0,.6908.0688.9887.1926.447.1925.8398.5089,1.1107.9078.1354.1925.2438.4126.3115.6464s.1083.4676.1083.729c0,.3163.1219.5914.3251.7977-.2032-.2063-.3251-.4951-.3251-.7977c0,1.3754-1.1377,2.4757-2.5192,2.4757-1.3951,0-2.5192-1.1141-2.5192-2.4757c0-.3439.0677-.6602.1896-.9491.1896-.4538.5011-.8252.9075-1.1003Z" fill="#0e9297"/><path d="M74.6115,17.7968c0,.6327.5011,1.1416,1.1241,1.1416s1.1242-.5089,1.1242-1.1416v-4.0574c0-2.0219,2.9933-2.4895,3.6163-.5227.0542.1651.0813.3439.0813.5227v4.1537h.0135c.0407.5777.5283,1.0453,1.1107,1.0453s1.0564-.4539,1.1106-1.0453v-.055c0-.0138,0-.0275,0-.0413s0-.0275,0-.0412v-3.975c0-.0137,0-.0275,0-.0412c0-3.1222-3.3861-5.0478-6.0814-3.5348-.1896-.33015-.5418-.55021-.9481-.55021-.623,0-1.1242.50891-1.1242,1.14161v2.9434l-.027,4.0574Z" fill="#0e9297"/></g></g><path d="M49.6088,38.428c.623,0,1.1241-.5089,1.1241-1.1416v-2.9434c.6773.3989,1.4628.6327,2.3026.6327c2.4921,0,4.5238-2.0494,4.5238-4.5939c0-2.5307-2.0181-4.5938-4.5238-4.5938-.8804,0-1.7066.2613-2.4109.7014-.1761-.3851-.5553-.6464-1.0023-.6464-.623,0-1.1242.5089-1.1242,1.1416c0,0,0,0,0,.0137v10.2881c-.0135.6327.4876,1.1416,1.1107,1.1416Zm3.4131-10.3706c1.2732,0,2.3026,1.0453,2.3026,2.3382s-1.0294,2.3382-2.3026,2.3382-2.3025-1.0453-2.3025-2.3382s1.0294-2.3382,2.3025-2.3382Z" fill="#0e9297"/><path d="M60.0649,33.8754c.4063.3301.8668.5914,1.3815.7564.5147.1788,1.0835.2614,1.6659.2614s1.1648-.1238,1.7066-.3301c.5418-.2201,1.0429-.5227,1.4763-.9216.2303-.2063.3793-.5089.3793-.839c0-.6327-.5012-1.1416-1.1242-1.1416-.2844,0-.5418.1101-.7449.2889-.2167.1925-.5012.3713-.7991.4951s-.6095.1788-.894.1788c-.4469,0-.8126-.0825-1.1241-.2063-.2303-.0963-.4199-.2063-.5824-.3576-.2438-.2063-.4335-.4814-.5689-.7977-.1354-.3164-.2032-.7015-.2032-1.1279c0-1.3754,1.0429-2.4757,2.2484-2.4757.9887,0,1.7201.5227,2.0858,1.3341h-2.5192c-.6231,0-1.1242.5089-1.1242,1.1416s.5011,1.1416,1.1242,1.1416h3.8601c.623,0,1.1242-.5089,1.1242-1.1416c0-2.6408-1.8827-4.7451-4.5374-4.7451-2.4515,0-4.4831,2.1319-4.4831,4.7451c0,.619.0948,1.2242.298,1.7881.1489.4263.3656.8252.6365,1.1828.2167.3026.4605.5639.7179.7703Z" fill="#0e9297"/><path d="M75.1126,33.4902c0-.6326-.5011-1.1415-1.1242-1.1415-.0542,0-.1083.0137-.1625.0137-.8804.1376-1.4493-.0275-1.4493-.9078v-3.9336h1.5441c.623,0,1.1106-.5089,1.1106-1.1416s-.5011-1.1279-1.1106-1.1416h-1.5441v-2.1457c0-.6326-.5011-1.1415-1.1241-1.1415s-1.1242.5089-1.1242,1.1415v2.1457h-.6772c-.6231,0-1.1242.5089-1.1242,1.1416s.5011,1.1416,1.1242,1.1416h.6772v3.8786c0,2.1044,1.4357,3.6036,4.0091,3.2185.5553-.0825.9752-.5502.9752-1.1279Z" fill="#0e9297"/><path d="M78.3361,22.1156c-.623,0-1.1241.5089-1.1241,1.1416s.5011,1.1416,1.1241,1.1416s1.1242-.5089,1.1242-1.1416c-.0135-.6465-.5147-1.1416-1.1242-1.1416Z" fill="#0e9297"/><path d="M78.3361,25.5541c-.623,0-1.1241.5089-1.1241,1.1416v6.8633c0,.6327.5011,1.1416,1.1241,1.1416s1.1242-.5089,1.1242-1.1416v-6.877c-.0135-.619-.5147-1.1279-1.1242-1.1279Z" fill="#0e9297"/><path d="M86.7336,34.6181c.5418-.0825.9616-.5502.9616-1.1279c0-.6326-.5011-1.1415-1.1241-1.1415-.0542,0-.1084.0137-.1626.0137-.8804.1376-1.4492-.0275-1.4492-.9078v-3.9336h1.544c.6231,0,1.1107-.5089,1.1107-1.1416s-.5012-1.1279-1.1107-1.1416h-1.544v-2.1457c0-.6326-.5012-1.1415-1.1242-1.1415s-1.1242.5089-1.1242,1.1415v2.1457h-.6772c-.623,0-1.1242.5089-1.1242,1.1416s.5012,1.1416,1.1242,1.1416h.6772v3.8786c.0271,2.1044,1.4493,3.6036,4.0227,3.2185Z" fill="#0e9297"/><path d="M56.5976,39.3495c-.6231,0-1.1242.5089-1.1242,1.1416v2.8883c-.7179-.4676-1.5441-.7152-2.3974-.7152-1.5575,0-2.9391.8115-3.7517,2.0769-2.0046,3.0809.1219,7.2897,3.7653,7.2897.8939,0,1.7608-.2751,2.5057-.784.1761.3989.5688.6739,1.0158.6739.623,0,1.1242-.5089,1.1242-1.1415c0,0,0,0,0-.0138v-10.2881c-.0136-.6189-.5147-1.1278-1.1377-1.1278ZM53.076,49.7613c-1.2596,0-2.2889-1.0728-2.2889-2.4069c0-2.3795,2.9255-3.301,4.1852-1.3617c1.0429,1.5955-.0542,3.7686-1.8963,3.7686Z" fill="#0e9297"/><path d="M59.2116,47.4094c0,2.6133,2.1265,4.7452,4.754,4.7452c2.6141,0,4.7541-2.1182,4.7541-4.7452c0-.6602-.1355-1.2791-.3793-1.8568-.3657-.8527-.9616-1.5817-1.7201-2.0906-.3792-.2476-.7991-.4539-1.2461-.5914-.4469-.1376-.921-.2064-1.4086-.2064-.6501,0-1.2731.1376-1.842.3714-.8533.3576-1.5711.949-2.0858,1.7055-.2573.3851-.4605.7978-.5959,1.2516-.149.4539-.2303.9353-.2303,1.4167Zm7.2597,0c0,1.3754-1.1377,2.4758-2.5192,2.4758-1.3951,0-2.5192-1.1141-2.5192-2.4758c0-.3438.0677-.6602.1896-.949.1896-.4402.5011-.8253.9075-1.0866.2031-.1375.4198-.2476.6636-.3163s.4876-.1101.7585-.1101c.3522,0,.6908.0688.9887.1926.447.1925.8398.5089,1.1107.9078.1354.1925.2438.4126.3115.6464.0677.2201.1083.4676.1083.7152Z" fill="#0e9297"/><path d="M71.6995,39.2945c-.623,0-1.1242.5089-1.1242,1.1416s.5012,1.1416,1.1242,1.1416s1.1242-.5089,1.1242-1.1416-.5012-1.1416-1.1242-1.1416Z" fill="#0e9297"/><path d="M71.6995,42.7468c-.623,0-1.1242.5089-1.1242,1.1416v6.8633c0,.6326.5012,1.1415,1.1242,1.1415s1.1242-.5089,1.1242-1.1415v-6.8771c0-.6327-.5012-1.1278-1.1242-1.1278Z" fill="#0e9297"/><path d="M83.3747,47.2443c0-.0687,0-.1375,0-.2063c0-.7014,0-1.3616,0-1.8843c0-.3026,0-.5639,0-.7427s0-.2751,0-.2751c0-.6327-.5011-1.1416-1.1242-1.1416-.4334,0-.8126.2614-1.0023.6327c0,.0138,0,.0138-.0135.0275c0-.0137,0-.0137.0135-.0275-.7178-.4126-1.5305-.6327-2.3838-.6327-3.2641,0-5.4177,3.1497-4.131,5.928c1.0971,2.3657,4.104,3.2323,6.3929,1.9806v.2063c0,0,0,.0551-.0135.1101-.1084.784-.596,1.4717-1.4492,1.678-.5418.1375-1.4493.1513-2.2349-.0688-.623-.165-.8939-.3714-1.1241-.5226-.0271-.0276-.0542-.0413-.0948-.0551-.0407-.0275-.0678-.0412-.1084-.0687-.0135,0-.0135-.0138-.0271-.0138-.1219-.055-.2438-.0825-.4199-.0825-.623,0-1.1241.5089-1.1241,1.1416c0,.3713.176.7014.4469.9077.0136.0138.0271.0138.0407.0276l.0135.0137c1.4763,1.0866,3.6841,1.2929,5.1604.9353c0,0,0,0,.0135,0c1.6118-.3989,2.6683-1.623,3.0475-3.1222.1625-.6464.1219-.5639.1219-4.5526c0-.055,0-.1238,0-.1926Zm-2.1806-3.4247c-.0136.0275-.0136.055-.0271.0687c0-.0137.0135-.0412.0271-.0687ZM78.878,49.2112c-.8127,0-1.517-.3714-1.9098-.9078-1.219-1.6505.8127-3.6448,2.8308-2.8608.7178.275,1.2867.9077,1.3409,1.678v.2613c-.0813,1.004-1.0429,1.8293-2.2619,1.8293Z" fill="#0e9297"/><path d="M91,50.6829c0-.6327-.5011-1.1416-1.1241-1.1416-.0542,0-.1084.0138-.1626.0138-.8803.1375-1.4492-.0276-1.4492-.9078v-3.9337h1.544c.6231,0,1.1107-.5089,1.1107-1.1416s-.5012-1.1416-1.1107-1.1416h-1.544v-2.1456c0-.6327-.5011-1.1416-1.1242-1.1416-.623,0-1.1242.5089-1.1242,1.1416v2.1456h-.6772c-.623,0-1.1241.5089-1.1241,1.1416s.5011,1.1416,1.1241,1.1416h.6772v3.8787c0,2.1043,1.4357,3.6035,4.0092,3.2184.5553-.0962.9751-.5639.9751-1.1278Z" fill="#0e9297"/><path d="M2.65068,35.4021c.92101,0,1.6524-.7565,1.6524-1.678v-6.0106c0-2.9984,4.44252-3.6998,5.36354-.784.08126.2476.12189.5089.12189.784v6.0243c0,.9215.74489,1.678,1.65239,1.678.921,0,1.6524-.7565,1.6524-1.678v-6.0243c0-2.9984,4.4425-3.7136,5.3636-.784.0812.2476.1218.5089.1218.784v6.0243c0,.9215.745,1.678,1.6525,1.678.921,0,1.6524-.7565,1.6524-1.678v-6.0243c0-.0137,0-.0275,0-.0275c0-.165-.0136-.3439-.0271-.5089c0-.0688-.0136-.1375-.0271-.2063-.0136-.11-.0271-.2201-.0542-.3301-.0135-.0825-.0271-.1513-.0406-.2338-.0271-.0963-.0407-.1926-.0678-.2889-.0406-.165-.0948-.3301-.1489-.4814-.0271-.055-.0407-.11-.0678-.165-.0406-.11-.0948-.2063-.1354-.3164-.0271-.0412-.0406-.0825-.0677-.1237-.0542-.1101-.1084-.2201-.1761-.3301-.0135-.0138-.0135-.0275-.0271-.0413-1.0429-1.7743-2.9797-2.9709-5.2145-2.9709-1.6931,0-3.2778.7015-4.4019,1.8843-1.1107-1.1691-2.6818-1.8843-4.38837-1.8843-1.05646,0-2.07228.2613-2.99329.784-.28443-.4952-.81265-.8253-1.42215-.8253-.92101,0-1.652399.7565-1.652399,1.6781v10.3843c.013545.9353.758479,1.6918,1.679489,1.6918Z" fill="#0e9297"/><path d="M39.735,41.5639L39.4912,6.711c0-.82524-.1761-1.63673-.4741-2.35195-.2844-.67395-.6907-1.26538-1.1783-1.78803-1.1242-1.18285-2.6953-1.884313-4.4019-1.884313-1.0565,0-2.0723.261327-2.9933.783983-1.8691,1.05907-3.0745,3.03966-3.0745,5.24031v15.6109c-.8533-.4401-1.7879-.6602-2.7495-.6602-.921,0-1.6524.7565-1.6524,1.6918c0,.9352.7449,1.6917,1.6659,1.6917c1.368.0275,2.7359.9766,2.7495,2.6271v.0275v6.0105c0,.9353.7449,1.678,1.6524,1.678.921,0,1.6524-.7565,1.6524-1.678v-26.9993c0-2.99839,4.4425-3.69985,5.3635-.77023.0813.24758.1219.50891.1219.78399l.298,34.94914c0,9.009-7.2191,16.3537-16.1041,16.3537-8.8851,0-16.10418-7.3585-16.10418-16.3674l.02709-2.9296c.01354-.9353-.7314-1.6918-1.65241-1.6918-.90746,0-1.652398.7565-1.652398,1.678v2.9434c0,10.852,8.695428,19.6821,19.381898,19.6821s19.3818-8.8301,19.3818-19.6821c-.0135-.0275-.0135-.0688-.0135-.0963Z" fill="#0e9297"/><path d="M13.1611,41.784c-.0812-.9078-.8126-1.5817-1.693-1.5817-.4741,0-.9346.2063-1.2596.5639s-.48763.839-.44699,1.3341c.50109,5.653,5.21459,10.0818,10.74059,10.0818c5.5261,0,10.2395-4.4288,10.7406-10.0818.0407-.4814-.1219-.9765-.4469-1.3341s-.7856-.5639-1.2597-.5639c-.8803,0-1.6117.6877-1.693,1.5817-.325,3.8787-3.5621,6.9046-7.3274,6.9046-3.7789,0-7.0024-3.0259-7.3546-6.9046Z" fill="#0e9297"/></g></svg>
