<svg width="375" height="418" viewBox="0 0 375 418" fill="none" xmlns="http://www.w3.org/2000/svg">
<rect width="375" height="418" fill="url(#paint0_linear_12_728)"/>
<path d="M-16.8929 271.151C-16.9701 272.077 -17.7421 272.797 -18.6684 272.797C-19.1573 272.797 -19.6462 272.592 -19.9807 272.206C-20.3152 271.846 -20.4954 271.331 -20.4439 270.842C-19.9293 265.003 -14.963 260.424 -9.19905 260.424C-3.4351 260.424 1.53116 265.003 2.0458 270.842C2.09726 271.331 1.91714 271.846 1.58262 272.206C1.24811 272.566 0.759205 272.797 0.2703 272.797C-0.65605 272.797 -1.42801 272.103 -1.50521 271.151C-1.86546 267.164 -5.26207 264.026 -9.19905 264.026C-13.136 264.026 -16.5327 267.164 -16.8929 271.151Z" fill="#F0FF03" fill-opacity="0.5"/>
<path d="M194.803 274.572C194.726 275.498 193.954 276.219 193.028 276.219C192.539 276.219 192.05 276.013 191.716 275.627C191.381 275.267 191.201 274.752 191.252 274.264C191.767 268.424 196.733 263.846 202.497 263.846C208.287 263.846 213.228 268.424 213.742 274.264C213.794 274.752 213.614 275.267 213.279 275.627C212.944 275.987 212.456 276.219 211.967 276.219C211.04 276.219 210.268 275.524 210.191 274.572C209.831 270.585 206.434 267.447 202.497 267.447C198.56 267.447 195.164 270.585 194.803 274.572Z" fill="#F0FF03" fill-opacity="0.5"/>
<path d="M28.3953 194.264C27.8034 193.543 27.8291 192.514 28.4982 191.846C28.8584 191.486 29.3473 191.305 29.8362 191.331C30.3509 191.357 30.8141 191.588 31.1228 191.974C34.8797 196.476 34.6224 203.19 30.531 207.28C26.4396 211.37 19.6979 211.627 15.2205 207.871C14.8345 207.537 14.6029 207.074 14.5772 206.585C14.5515 206.096 14.7316 205.608 15.0919 205.248C15.7352 204.605 16.7902 204.553 17.5107 205.145C20.5985 207.717 25.2045 207.537 28.0093 204.733C30.7883 201.955 30.9684 197.35 28.3953 194.264Z" fill="#F0FF03" fill-opacity="0.5"/>
<path d="M69.4376 250.032C68.7171 250.624 67.6879 250.598 67.0188 249.929C66.6586 249.569 66.4785 249.08 66.5042 248.592C66.5299 248.077 66.7615 247.614 67.1475 247.305C71.6506 243.55 78.3666 243.807 82.458 247.897C86.5494 251.987 86.8067 258.727 83.0498 263.203C82.7153 263.588 82.2521 263.82 81.7632 263.846C81.2743 263.871 80.7854 263.691 80.4252 263.331C79.7819 262.688 79.7304 261.633 80.3222 260.913C82.8954 257.826 82.7153 253.222 79.9105 250.418C77.1315 247.64 72.5255 247.46 69.4376 250.032Z" fill="#F0FF03" fill-opacity="0.5"/>
<path d="M65.6808 150.251C64.9603 150.842 63.931 150.817 63.262 150.148C62.9017 149.788 62.7216 149.299 62.7474 148.81C62.7731 148.296 63.0047 147.833 63.3906 147.524C67.8937 143.768 74.6098 144.026 78.7011 148.116C82.7925 152.206 83.0498 158.945 79.2929 163.421C78.9584 163.807 78.4953 164.039 78.0064 164.064C77.5175 164.09 77.0285 163.91 76.6683 163.55C76.025 162.907 75.9735 161.852 76.5654 161.132C79.1386 158.045 78.9584 153.441 76.1537 150.637C73.3746 147.859 68.7686 147.678 65.6808 150.251Z" fill="#F0FF03" fill-opacity="0.5"/>
<path d="M186.235 183.125C185.514 183.717 184.485 183.691 183.816 183.023C183.456 182.662 183.276 182.174 183.301 181.685C183.327 181.17 183.559 180.707 183.945 180.399C188.448 176.643 195.164 176.9 199.255 180.99C203.346 185.08 203.604 191.82 199.847 196.296C199.512 196.682 199.049 196.913 198.56 196.939C198.071 196.965 197.583 196.785 197.222 196.424C196.579 195.781 196.528 194.727 197.119 194.006C199.693 190.92 199.512 186.315 196.708 183.511C193.929 180.733 189.323 180.553 186.235 183.125Z" fill="#F0FF03" fill-opacity="0.5"/>
<path d="M251.388 202.701C251.311 203.627 250.539 204.347 249.612 204.347C249.123 204.347 248.635 204.141 248.3 203.756C247.966 203.395 247.785 202.881 247.837 202.392C248.352 196.553 253.318 191.974 259.082 191.974C264.871 191.974 269.812 196.553 270.327 202.392C270.378 202.881 270.198 203.395 269.863 203.756C269.529 204.116 269.04 204.347 268.551 204.347C267.625 204.347 266.853 203.653 266.776 202.701C266.415 198.714 263.019 195.576 259.082 195.576C255.145 195.576 251.774 198.714 251.388 202.701Z" fill="#F0FF03" fill-opacity="0.5"/>
<path d="M327.889 216.695C326.962 216.772 326.139 216.129 325.985 215.203C325.907 214.714 326.036 214.199 326.345 213.813C326.654 213.428 327.117 213.17 327.632 213.145C333.473 212.707 338.799 216.849 339.726 222.559C340.652 228.27 336.946 233.878 331.285 235.344C330.797 235.473 330.282 235.395 329.844 235.113C329.433 234.83 329.15 234.392 329.047 233.904C328.892 232.977 329.458 232.129 330.385 231.897C334.27 230.894 336.818 227.035 336.175 223.151C335.531 219.241 331.903 216.412 327.889 216.695Z" fill="#F0FF03" fill-opacity="0.5"/>
<path d="M360.774 267.704C360.131 268.373 359.102 268.476 358.356 267.884C357.97 267.576 357.712 267.113 357.686 266.624C357.661 266.135 357.815 265.621 358.175 265.26C362.19 260.99 368.906 260.476 373.46 264.051C378.015 267.627 379.07 274.289 375.853 279.177C375.57 279.588 375.133 279.897 374.644 279.974C374.155 280.051 373.64 279.923 373.254 279.614C372.534 279.048 372.354 278.019 372.868 277.222C375.056 273.852 374.335 269.299 371.221 266.855C368.134 264.437 363.528 264.797 360.774 267.704Z" fill="#F0FF03" fill-opacity="0.5"/>
<path d="M368.545 182.765C368.623 183.691 367.979 184.514 367.053 184.669C366.564 184.746 366.049 184.617 365.663 184.309C365.277 184 365.02 183.537 364.994 183.022C364.557 177.183 368.7 171.859 374.412 170.932C380.125 170.006 385.734 173.711 387.201 179.37C387.33 179.859 387.252 180.373 386.969 180.81C386.686 181.222 386.249 181.505 385.76 181.608C384.834 181.762 383.984 181.196 383.753 180.27C382.749 176.386 378.89 173.839 375.004 174.482C371.093 175.125 368.262 178.752 368.545 182.765Z" fill="#F0FF03" fill-opacity="0.5"/>
<path d="M300.407 160.875C300.562 161.801 300.021 162.675 299.121 162.932C298.632 163.061 298.117 162.984 297.705 162.727C297.268 162.469 296.985 162.032 296.908 161.518C295.878 155.756 299.455 150.045 305.039 148.527C310.623 147.01 316.593 150.122 318.625 155.601C318.805 156.064 318.78 156.605 318.548 157.042C318.317 157.479 317.905 157.814 317.442 157.942C316.541 158.174 315.615 157.711 315.306 156.836C313.891 153.08 309.825 150.945 305.991 151.974C302.157 153.003 299.712 156.913 300.407 160.875Z" fill="#F0FF03" fill-opacity="0.5"/>
<path d="M355.576 95.9742C355.062 96.7459 354.058 97.0289 353.235 96.5916C352.797 96.3601 352.463 95.9485 352.36 95.4598C352.231 94.971 352.334 94.4566 352.592 94.0193C355.808 89.1061 362.318 87.4083 367.413 90.135C372.508 92.8617 374.721 99.2154 372.431 104.617C372.225 105.08 371.839 105.44 371.376 105.621C370.913 105.775 370.372 105.749 369.935 105.518C369.111 105.08 368.777 104.103 369.137 103.228C370.707 99.5241 369.189 95.1768 365.689 93.3247C362.241 91.4469 357.789 92.6302 355.576 95.9742Z" fill="#F0FF03" fill-opacity="0.5"/>
<path d="M299.095 93.3762C299.995 93.0932 300.922 93.5563 301.282 94.4051C301.462 94.8682 301.462 95.3826 301.231 95.8456C301.025 96.3087 300.613 96.6431 300.124 96.7974C294.515 98.4952 288.416 95.6399 286.255 90.2894C284.093 84.9389 286.461 78.6367 291.658 75.9614C292.096 75.7299 292.636 75.7042 293.099 75.8843C293.562 76.0643 293.948 76.4244 294.129 76.8875C294.489 77.7363 294.103 78.7138 293.279 79.1511C289.703 81.0032 288.082 85.299 289.574 88.9775C291.067 92.5788 295.235 94.5338 299.095 93.3762Z" fill="#F0FF03" fill-opacity="0.5"/>
<path d="M265.206 259.498C266.081 259.859 266.544 260.785 266.261 261.659C266.107 262.148 265.772 262.534 265.335 262.765C264.871 262.997 264.357 262.997 263.894 262.817C258.438 260.656 255.479 254.611 257.126 249.055C258.773 243.498 264.563 240.077 270.301 241.235C270.79 241.338 271.227 241.646 271.484 242.058C271.742 242.495 271.819 243.01 271.665 243.473C271.407 244.373 270.507 244.887 269.58 244.707C265.643 243.91 261.681 246.277 260.548 250.058C259.442 253.891 261.475 258.006 265.206 259.498Z" fill="#F0FF03" fill-opacity="0.5"/>
<path d="M175.582 10.701C175.505 11.6271 174.733 12.3474 173.806 12.3474C173.317 12.3474 172.828 12.1416 172.494 11.7557C172.159 11.3956 171.979 10.8811 172.031 10.3924C172.545 4.55314 177.512 -0.0256338 183.276 -0.0256338C189.04 -0.0256338 194.006 4.55314 194.52 10.3924C194.572 10.8811 194.392 11.3956 194.057 11.7557C193.723 12.1158 193.234 12.3474 192.745 12.3474C191.819 12.3474 191.047 11.6528 190.969 10.701C190.609 6.7139 187.213 3.57565 183.276 3.57565C179.339 3.57565 175.968 6.7139 175.582 10.701Z" fill="#F0FF03" fill-opacity="0.5"/>
<path d="M150.699 237.505C150.776 236.579 151.548 235.859 152.475 235.859C152.963 235.859 153.452 236.064 153.787 236.45C154.121 236.81 154.301 237.325 154.25 237.814C153.735 243.653 148.769 248.232 143.005 248.232C137.215 248.232 132.275 243.653 131.76 237.814C131.709 237.325 131.889 236.81 132.224 236.45C132.558 236.09 133.047 235.859 133.536 235.859C134.462 235.859 135.234 236.553 135.311 237.505C135.672 241.492 139.068 244.63 143.005 244.63C146.942 244.656 150.313 241.518 150.699 237.505Z" fill="#F0FF03" fill-opacity="0.5"/>
<path d="M147.148 128.154C147.225 127.228 147.997 126.508 148.923 126.508C149.412 126.508 149.901 126.714 150.236 127.1C150.57 127.46 150.75 127.974 150.699 128.463C150.184 134.302 145.218 138.881 139.454 138.881C133.664 138.881 128.724 134.302 128.209 128.463C128.158 127.974 128.338 127.46 128.672 127.1C129.007 126.74 129.496 126.508 129.985 126.508C130.911 126.508 131.683 127.203 131.76 128.154C132.121 132.141 135.517 135.28 139.454 135.28C143.391 135.28 146.762 132.167 147.148 128.154Z" fill="#F0FF03" fill-opacity="0.5"/>
<path d="M59.8654 87.5113C58.939 87.6913 58.3215 88.5402 58.4244 89.4405C58.4759 89.9293 58.7332 90.3923 59.1449 90.6753C59.5566 90.9839 60.0713 91.0868 60.5602 90.9839C66.2984 89.8521 70.3383 84.4502 69.7207 78.6881C69.1032 72.926 64.034 68.5016 58.1928 68.6045C57.6782 68.6045 57.215 68.836 56.8805 69.2218C56.546 69.6077 56.3916 70.0964 56.443 70.5852C56.546 71.5112 57.3179 72.18 58.27 72.18C62.2842 72.1286 65.758 75.164 66.1697 79.074C66.5557 83.0354 63.8024 86.7396 59.8654 87.5113Z" fill="#F0FF03" fill-opacity="0.5"/>
<path d="M126.434 44.1929C126.614 45.119 127.463 45.7363 128.364 45.6334C128.853 45.582 129.316 45.3248 129.599 44.9132C129.908 44.5016 130.011 43.9871 129.908 43.4984C128.775 37.7621 123.372 33.7235 117.608 34.3408C111.844 34.9582 107.418 40.0257 107.521 45.865C107.521 46.3794 107.752 46.8425 108.138 47.1769C108.524 47.5113 109.013 47.6656 109.502 47.6141C110.429 47.5112 111.098 46.7396 111.098 45.7878C111.046 41.7749 114.083 38.3023 117.994 37.8907C121.956 37.4791 125.662 40.2572 126.434 44.1929Z" fill="#F0FF03" fill-opacity="0.5"/>
<path d="M118.251 196.604C117.325 196.785 116.707 197.633 116.81 198.534C116.862 199.023 117.119 199.486 117.531 199.768C117.942 200.077 118.457 200.18 118.946 200.077C124.684 198.945 128.724 193.543 128.106 187.781C127.489 182.019 122.42 177.595 116.578 177.698C116.064 177.698 115.601 177.929 115.266 178.315C114.932 178.701 114.777 179.19 114.829 179.678C114.932 180.604 115.704 181.273 116.656 181.273C120.67 181.222 124.144 184.257 124.555 188.167C124.967 192.129 122.188 195.833 118.251 196.604Z" fill="#F0FF03" fill-opacity="0.5"/>
<path d="M166.73 86.5595C166.447 87.4598 166.884 88.4116 167.734 88.7717C168.197 88.9775 168.711 88.9518 169.175 88.746C169.638 88.5402 169.972 88.1543 170.127 87.6656C171.928 82.0836 169.149 75.9614 163.822 73.6978C158.496 71.4341 152.166 73.7235 149.412 78.8939C149.181 79.3312 149.129 79.8714 149.309 80.3344C149.464 80.7974 149.824 81.1833 150.287 81.3891C151.136 81.7492 152.114 81.3891 152.552 80.5659C154.456 77.0161 158.779 75.4727 162.433 76.9904C166.061 78.5338 167.939 82.7524 166.73 86.5595Z" fill="#F0FF03" fill-opacity="0.5"/>
<path d="M234.765 126.354C235.203 127.177 236.18 127.563 237.03 127.203C237.493 127.022 237.853 126.637 238.033 126.174C238.213 125.711 238.187 125.17 237.956 124.733C235.28 119.511 228.975 117.145 223.623 119.305C218.271 121.466 215.389 127.563 217.113 133.17C217.267 133.659 217.602 134.045 218.065 134.277C218.528 134.482 219.043 134.508 219.506 134.328C220.355 133.968 220.818 133.042 220.535 132.141C219.377 128.309 221.333 124.116 224.987 122.649C228.615 121.158 232.912 122.778 234.765 126.354Z" fill="#F0FF03" fill-opacity="0.5"/>
<path d="M220.638 45.4791C221.513 45.1189 221.951 44.1672 221.668 43.2926C221.513 42.8296 221.179 42.418 220.715 42.2122C220.252 42.0064 219.738 41.9807 219.274 42.1865C213.871 44.4501 210.989 50.5209 212.739 56.0514C214.488 61.5563 220.329 64.9003 226.042 63.6656C226.531 63.5627 226.968 63.254 227.2 62.8167C227.457 62.3794 227.509 61.8649 227.354 61.3762C227.071 60.5016 226.171 59.9871 225.244 60.1672C221.333 61.0161 217.319 58.7267 216.135 54.971C214.952 51.1897 216.933 47.0225 220.638 45.4791Z" fill="#F0FF03" fill-opacity="0.5"/>
<path d="M283.553 42.5981C283.27 43.4984 283.707 44.4244 284.582 44.7846C285.045 44.9646 285.56 44.9646 286.023 44.7331C286.486 44.5273 286.821 44.1157 286.975 43.627C288.699 38.0193 285.843 31.9228 280.491 29.7363C275.138 27.5498 268.834 29.9164 266.132 35.1125C265.901 35.5498 265.875 36.09 266.029 36.553C266.21 37.0161 266.57 37.4019 267.033 37.582C267.882 37.9421 268.86 37.5563 269.297 36.7331C271.15 33.1833 275.473 31.5627 279.127 33.0547C282.781 34.5723 284.736 38.7653 283.553 42.5981Z" fill="#F0FF03" fill-opacity="0.5"/>
<path d="M363.862 24C364.66 24.4888 365.689 24.283 366.229 23.537C366.512 23.1254 366.641 22.6367 366.538 22.1222C366.435 21.6335 366.126 21.1962 365.715 20.939C360.697 17.9036 354.084 19.164 350.662 23.82C347.239 28.4759 347.985 35.164 352.36 39.0482C352.746 39.3826 353.235 39.537 353.749 39.4855C354.238 39.4341 354.701 39.1769 354.985 38.7653C355.525 38.0193 355.422 36.9904 354.727 36.373C351.717 33.6978 351.202 29.119 353.544 25.955C355.911 22.791 360.414 21.9164 363.862 24Z" fill="#F0FF03" fill-opacity="0.5"/>
<path d="M63.9053 20.7589C64.2655 21.6335 65.2176 22.0708 66.0925 21.7878C66.5557 21.6335 66.9674 21.2991 67.1733 20.8361C67.3791 20.373 67.4048 19.8586 67.199 19.3955C64.9346 13.9936 58.8618 11.1126 53.3295 12.8618C47.7971 14.611 44.4777 20.4502 45.7128 26.1608C45.8158 26.6495 46.1245 27.0868 46.562 27.3184C46.9994 27.5756 47.5141 27.627 48.003 27.4727C48.8779 27.1897 49.3925 26.2894 49.2124 25.3634C48.3632 21.4534 50.6534 17.4405 54.4102 16.2573C58.1928 15.0997 62.3614 17.0547 63.9053 20.7589Z" fill="#F0FF03" fill-opacity="0.5"/>
<path d="M0.759214 107.344C1.35105 108.064 1.32532 109.093 0.656288 109.762C0.296042 110.122 -0.192867 110.302 -0.681773 110.277C-1.19641 110.251 -1.65958 110.019 -1.96837 109.633C-5.72522 105.132 -5.46791 98.418 -1.37654 94.328C2.71483 90.2379 9.45659 89.9807 13.9339 93.7363C14.3199 94.0707 14.5515 94.5338 14.5772 95.0225C14.603 95.5112 14.4228 96 14.0626 96.3601C13.4193 97.0032 12.3643 97.0547 11.6438 96.463C8.55597 93.8907 3.94997 94.0707 1.14519 96.8746C-1.63385 99.6527 -1.81397 104.257 0.759214 107.344Z" fill="#F0FF03" fill-opacity="0.5"/>
<defs>
<linearGradient id="paint0_linear_12_728" x1="-78.2209" y1="-86.5491" x2="253.849" y2="206.224" gradientUnits="userSpaceOnUse">
<stop stop-color="#F0FF03"/>
<stop offset="1" stop-color="#43D681"/>
</linearGradient>
</defs>
</svg>
